<?xml version="1.0" encoding="UTF-8"?>
<svg id="Calque_1" data-name="Calque 1" xmlns="http://www.w3.org/2000/svg" viewBox="0 0 139.07 210.31">
  <defs>
    <style>
      .cls-1 {
        fill: #ec3c7d;
      }

      .cls-1, .cls-2, .cls-3 {
        stroke-width: 0px;
      }

      .cls-2 {
        fill: #fff;
      }

      .cls-3 {
        fill: #ee5181;
      }
    </style>
  </defs>
  <path class="cls-3" d="M6.81,1.17S.27,3.66.14,11.19C-.11,13.11.03,169.99.14,173.7c.26,8.43,10.79,15.96,21.06,8.43,7.15-5.78,21.96-23.49,23.49-22.72,1.28,2.04,16.09,39.77,20.55,45.53,3.49,4.51,11.25,9.15,29.06.55,4.51-2.36,24.26-9.32,19.57-22.34-.51-2.81-21.39-46.21-19.88-46.21s30.96,2.57,37.76-1.28c2.09-1.18,2.86-1.48,4.49-3.85,4.36-6.33,2.65-15.19-2.92-20.49C111.66,90.69,37.23,18.47,24.19,5.82c-2.35-2.28-5.19-4.02-8.34-4.9C13.18.17,9.98-.09,6.81,1.17Z"/>
  <ellipse class="cls-2" cx="17.8" cy="141.19" rx="7.74" ry="8.6"/>
  <path class="cls-2" d="M10.57,39.36c0-1.62.46-3.21,1.31-4.58,1.11-1.79,2.19-3.55,6.69-3.54,1.51.04,5.1-.52,7.1,4.6.38.98.55,2.03.55,3.09-.06,9.77.02,74.64.02,75.03,0,.43-.81,6.45-7.38,6.55-4.62.11-7.85-1.45-8.28-7.06V39.36Z"/>
  <path class="cls-1" d="M6.81,1.17s113.59,110.53,114.61,111.72,7.02,16.38-13.02,20.98c-1.53.38-29.11.64-29.11.64,0,0,19.15,40.72,18.89,48.64-.13,1.15.18,16.73-31.38,23.49-.22-.21,7,7.73,23.4.67,1.47-.8,24.78-8.42,24.36-21.08.47-1.3-20.56-49.3-20.56-49.3,0,0,31.91,3.23,38.41-1.64,1.9-2.06,14.23-8.75-.42-25.26C130.54,108.66,21.41,3.54,21.41,3.54c0,0-9.58-6.01-14.59-2.37Z"/>
</svg>