<?xml version="1.0" encoding="UTF-8"?>
<svg id="Calque_2" data-name="Calque 2" xmlns="http://www.w3.org/2000/svg" viewBox="0 0 208.87 193.25">
  <defs>
    <style>
      .cls-1 {
        fill: #ec3c7d;
      }

      .cls-1, .cls-2, .cls-3 {
        stroke-width: 0px;
      }

      .cls-2 {
        fill: #fff;
      }

      .cls-3 {
        fill: #ee5181;
      }
    </style>
  </defs>
  <path class="cls-3" d="M105.66,36.79S113.33,4.61,146.14.78c8.3-.97,16.71.22,24.56,3.1,19.24,7.08,54.53,29.38,29.51,96.69-1.7,3.06-22.86,54.3-96.57,92.08-.34.34-59.86-27.74-89.65-80.68-.46-.92-33.35-60.82,3.3-95.52C25.36,8.83,35.43,3.58,46.28,1.27c16.01-3.41,42.7-2.46,59.39,35.52Z"/>
  <path class="cls-2" d="M84.21,17.79c1.22.94,3.97,3.68,4.78,6.24,1.1,3.51.57,8.03-7.94,10.03-.6,0-3.32,1.19-8.17-3.83-.77-.43-11.49-9.79-30.64,1.62-.43.51-12.17,7.49-14.04,24.85,0,1.36-2.3,9.53,4.34,27.66.68,2.14,4.06,9.09,6.11,14.98.95,2.72.54,5.8-1.28,8.03-1.26,1.54-3.17,2.79-5.99,2.78-3.04-.01-5.83-1.72-7.44-4.3-3.82-6.12-10.2-17.48-11.73-31.7-1.57-14.53-6.66-58.12,48.43-63.45,0,0,13.47-.7,23.59,7.09Z"/>
  <path class="cls-1" d="M129.03,6.23s25.6-17.52,59.76,8.17c2.87,2.5,32.38,26.08,12.99,81.19-.67,1.94-19.18,48.24-66.01,78.65-1.93,1.35-32.41,19.01-32.41,19.01l-36.24-22.74c-.18-.11-.12-.38.09-.41,28.32-3.59,67.34-30.96,67.52-31.33,36.89-25.15,46.85-63.45,47.49-65.23,3.76-11.48,3.09-22.26.94-31.09-5.72-23.46-28.02-39.15-52.02-36.52-1.35.15-2.11.29-2.11.29"/>
  <ellipse class="cls-2" cx="46.3" cy="123.79" rx="8.19" ry="7.73"/>
</svg>